<svg width="198" height="40" viewBox="0 0 198 40" fill="none" xmlns="http://www.w3.org/2000/svg">
<path d="M29.9998 26.6666C30.8839 26.6666 31.7317 27.0178 32.3569 27.6429C32.982 28.2681 33.3332 29.1159 33.3332 30C33.3332 30.884 32.982 31.7319 32.3569 32.357C31.7317 32.9821 30.8839 33.3333 29.9998 33.3333C29.1158 33.3333 28.2679 32.9821 27.6428 32.357C27.0177 31.7319 26.6665 30.884 26.6665 30M29.9998 26.6666C29.1158 26.6666 28.2679 27.0178 27.6428 27.6429C27.0177 28.2681 26.6665 29.1159 26.6665 30M29.9998 26.6666V13.3333M26.6665 30H13.3332M13.3332 30C13.3332 29.1159 12.982 28.2681 12.3569 27.6429C11.7317 27.0178 10.8839 26.6666 9.99984 26.6666M13.3332 30C13.3332 30.884 12.982 31.7319 12.3569 32.357C11.7317 32.9821 10.8839 33.3333 9.99984 33.3333C9.11578 33.3333 8.26794 32.9821 7.64281 32.357C7.01769 31.7319 6.6665 30.884 6.6665 30C6.6665 29.1159 7.01769 28.2681 7.64281 27.6429C8.26794 27.0178 9.11578 26.6666 9.99984 26.6666M9.99984 26.6666V13.3333M13.3332 9.99996C13.3332 9.1159 12.982 8.26806 12.3569 7.64294C11.7317 7.01782 10.8839 6.66663 9.99984 6.66663C9.11578 6.66663 8.26794 7.01782 7.64281 7.64294C7.01769 8.26806 6.6665 9.1159 6.6665 9.99996C6.6665 10.884 7.01769 11.7319 7.64281 12.357C8.26794 12.9821 9.11578 13.3333 9.99984 13.3333M13.3332 9.99996C13.3332 10.884 12.982 11.7319 12.3569 12.357C11.7317 12.9821 10.8839 13.3333 9.99984 13.3333M13.3332 9.99996H26.6665M26.6665 9.99996C26.6665 9.1159 27.0177 8.26806 27.6428 7.64294C28.2679 7.01782 29.1158 6.66663 29.9998 6.66663C30.8839 6.66663 31.7317 7.01782 32.3569 7.64294C32.982 8.26806 33.3332 9.1159 33.3332 9.99996C33.3332 10.884 32.982 11.7319 32.3569 12.357C31.7317 12.9821 30.8839 13.3333 29.9998 13.3333M26.6665 9.99996C26.6665 10.884 27.0177 11.7319 27.6428 12.357C28.2679 12.9821 29.1158 13.3333 29.9998 13.3333M12.4998 12.5L17.4998 17.5M23.3332 20C23.3332 19.1159 22.982 18.2681 22.3569 17.6429C21.7317 17.0178 20.8839 16.6666 19.9998 16.6666C19.1158 16.6666 18.2679 17.0178 17.6428 17.6429C17.0177 18.2681 16.6665 19.1159 16.6665 20C16.6665 20.884 17.0177 21.7319 17.6428 22.357C18.2679 22.9821 19.1158 23.3333 19.9998 23.3333C20.8839 23.3333 21.7317 22.9821 22.3569 22.357C22.982 21.7319 23.3332 20.884 23.3332 20Z" stroke="#0167FF" stroke-width="3" stroke-linecap="round" stroke-linejoin="round"/>
<path d="M50.2955 31.5V8.22727H54.5114V18.0795H65.2955V8.22727H69.5227V31.5H65.2955V21.6136H54.5114V31.5H50.2955ZM76.483 38.0455C75.9223 38.0455 75.4034 38 74.9261 37.9091C74.4564 37.8258 74.0814 37.7273 73.8011 37.6136L74.7557 34.4091C75.3542 34.5833 75.8883 34.6667 76.358 34.6591C76.8277 34.6515 77.2405 34.5038 77.5966 34.2159C77.9602 33.9356 78.267 33.4659 78.517 32.8068L78.8693 31.8636L72.5398 14.0455H76.9034L80.9261 27.2273H81.108L85.142 14.0455H89.517L82.5284 33.6136C82.2027 34.5379 81.7708 35.3295 81.233 35.9886C80.6951 36.6553 80.036 37.1629 79.2557 37.5114C78.483 37.8674 77.5587 38.0455 76.483 38.0455ZM92.3636 38.0455V14.0455H96.4091V16.9318H96.6477C96.8598 16.5076 97.1591 16.0568 97.5455 15.5795C97.9318 15.0947 98.4545 14.6818 99.1136 14.3409C99.7727 13.9924 100.614 13.8182 101.636 13.8182C102.985 13.8182 104.201 14.1629 105.284 14.8523C106.375 15.5341 107.239 16.5455 107.875 17.8864C108.519 19.2197 108.841 20.8561 108.841 22.7955C108.841 24.7121 108.527 26.3409 107.898 27.6818C107.269 29.0227 106.413 30.0455 105.33 30.75C104.246 31.4545 103.019 31.8068 101.648 31.8068C100.648 31.8068 99.8182 31.6402 99.1591 31.3068C98.5 30.9735 97.9697 30.572 97.5682 30.1023C97.1742 29.625 96.8674 29.1742 96.6477 28.75H96.4773V38.0455H92.3636ZM96.3977 22.7727C96.3977 23.9015 96.5568 24.8902 96.875 25.7386C97.2008 26.5871 97.6667 27.25 98.2727 27.7273C98.8864 28.197 99.6288 28.4318 100.5 28.4318C101.409 28.4318 102.17 28.1894 102.784 27.7045C103.398 27.2121 103.86 26.5417 104.17 25.6932C104.489 24.8371 104.648 23.8636 104.648 22.7727C104.648 21.6894 104.492 20.7273 104.182 19.8864C103.871 19.0455 103.409 18.3864 102.795 17.9091C102.182 17.4318 101.417 17.1932 100.5 17.1932C99.6212 17.1932 98.875 17.4242 98.2614 17.8864C97.6477 18.3485 97.1818 18.9962 96.8636 19.8295C96.553 20.6629 96.3977 21.6439 96.3977 22.7727ZM120.091 31.8409C118.341 31.8409 116.83 31.4773 115.557 30.75C114.292 30.0152 113.318 28.9773 112.636 27.6364C111.955 26.2879 111.614 24.7008 111.614 22.875C111.614 21.0795 111.955 19.5038 112.636 18.1477C113.326 16.7841 114.288 15.7235 115.523 14.9659C116.758 14.2008 118.208 13.8182 119.875 13.8182C120.951 13.8182 121.966 13.9924 122.92 14.3409C123.883 14.6818 124.731 15.2121 125.466 15.9318C126.208 16.6515 126.792 17.5682 127.216 18.6818C127.64 19.7879 127.852 21.1061 127.852 22.6364V23.8977H113.545V21.125H123.909C123.902 20.3371 123.731 19.6364 123.398 19.0227C123.064 18.4015 122.598 17.9129 122 17.5568C121.409 17.2008 120.72 17.0227 119.932 17.0227C119.091 17.0227 118.352 17.2273 117.716 17.6364C117.08 18.0379 116.583 18.5682 116.227 19.2273C115.879 19.8788 115.701 20.5947 115.693 21.375V23.7955C115.693 24.8106 115.879 25.6818 116.25 26.4091C116.621 27.1288 117.14 27.6818 117.807 28.0682C118.473 28.447 119.254 28.6364 120.148 28.6364C120.746 28.6364 121.288 28.553 121.773 28.3864C122.258 28.2121 122.678 27.9583 123.034 27.625C123.39 27.2917 123.659 26.8788 123.841 26.3864L127.682 26.8182C127.439 27.8333 126.977 28.7197 126.295 29.4773C125.621 30.2273 124.758 30.8106 123.705 31.2273C122.652 31.6364 121.447 31.8409 120.091 31.8409ZM150.764 15.5H147.946C147.779 14.6894 147.488 13.9773 147.071 13.3636C146.662 12.75 146.162 12.2348 145.571 11.8182C144.988 11.3939 144.34 11.0758 143.628 10.8636C142.916 10.6515 142.173 10.5455 141.401 10.5455C139.991 10.5455 138.715 10.9015 137.571 11.6136C136.435 12.3258 135.529 13.375 134.855 14.7614C134.188 16.1477 133.855 17.8485 133.855 19.8636C133.855 21.8788 134.188 23.5795 134.855 24.9659C135.529 26.3523 136.435 27.4015 137.571 28.1136C138.715 28.8258 139.991 29.1818 141.401 29.1818C142.173 29.1818 142.916 29.0758 143.628 28.8636C144.34 28.6515 144.988 28.3371 145.571 27.9205C146.162 27.4962 146.662 26.9773 147.071 26.3636C147.488 25.7424 147.779 25.0303 147.946 24.2273H150.764C150.552 25.4167 150.166 26.4811 149.605 27.4205C149.045 28.3598 148.348 29.1591 147.514 29.8182C146.681 30.4697 145.745 30.9659 144.707 31.3068C143.677 31.6477 142.575 31.8182 141.401 31.8182C139.416 31.8182 137.651 31.3333 136.105 30.3636C134.56 29.3939 133.344 28.0152 132.457 26.2273C131.571 24.4394 131.128 22.3182 131.128 19.8636C131.128 17.4091 131.571 15.2879 132.457 13.5C133.344 11.7121 134.56 10.3333 136.105 9.36364C137.651 8.39394 139.416 7.90909 141.401 7.90909C142.575 7.90909 143.677 8.07954 144.707 8.42045C145.745 8.76136 146.681 9.26136 147.514 9.92045C148.348 10.572 149.045 11.3674 149.605 12.3068C150.166 13.2386 150.552 14.303 150.764 15.5ZM162.045 31.8636C160.47 31.8636 159.087 31.4886 157.898 30.7386C156.716 29.9886 155.792 28.9394 155.125 27.5909C154.466 26.2424 154.136 24.6667 154.136 22.8636C154.136 21.0455 154.466 19.4583 155.125 18.1023C155.792 16.7462 156.716 15.6932 157.898 14.9432C159.087 14.1932 160.47 13.8182 162.045 13.8182C163.621 13.8182 165 14.1932 166.182 14.9432C167.371 15.6932 168.295 16.7462 168.955 18.1023C169.621 19.4583 169.955 21.0455 169.955 22.8636C169.955 24.6667 169.621 26.2424 168.955 27.5909C168.295 28.9394 167.371 29.9886 166.182 30.7386C165 31.4886 163.621 31.8636 162.045 31.8636ZM162.045 29.4545C163.242 29.4545 164.227 29.1477 165 28.5341C165.773 27.9205 166.345 27.1136 166.716 26.1136C167.087 25.1136 167.273 24.0303 167.273 22.8636C167.273 21.697 167.087 20.6098 166.716 19.6023C166.345 18.5947 165.773 17.7803 165 17.1591C164.227 16.5379 163.242 16.2273 162.045 16.2273C160.848 16.2273 159.864 16.5379 159.091 17.1591C158.318 17.7803 157.746 18.5947 157.375 19.6023C157.004 20.6098 156.818 21.697 156.818 22.8636C156.818 24.0303 157.004 25.1136 157.375 26.1136C157.746 27.1136 158.318 27.9205 159.091 28.5341C159.864 29.1477 160.848 29.4545 162.045 29.4545ZM174.048 31.5V14.0455H176.73V31.5H174.048ZM175.412 11.1364C174.889 11.1364 174.438 10.9583 174.06 10.6023C173.688 10.2462 173.503 9.81818 173.503 9.31818C173.503 8.81818 173.688 8.39015 174.06 8.03409C174.438 7.67803 174.889 7.5 175.412 7.5C175.935 7.5 176.382 7.67803 176.753 8.03409C177.132 8.39015 177.321 8.81818 177.321 9.31818C177.321 9.81818 177.132 10.2462 176.753 10.6023C176.382 10.9583 175.935 11.1364 175.412 11.1364ZM184.324 21V31.5H181.642V14.0455H184.233V16.7727H184.46C184.869 15.8864 185.491 15.1742 186.324 14.6364C187.157 14.0909 188.233 13.8182 189.551 13.8182C190.733 13.8182 191.767 14.0606 192.653 14.5455C193.54 15.0227 194.229 15.75 194.722 16.7273C195.214 17.697 195.46 18.9242 195.46 20.4091V31.5H192.778V20.5909C192.778 19.2197 192.422 18.1515 191.71 17.3864C190.998 16.6136 190.021 16.2273 188.778 16.2273C187.922 16.2273 187.157 16.4129 186.483 16.7841C185.816 17.1553 185.29 17.697 184.903 18.4091C184.517 19.1212 184.324 19.9848 184.324 21Z" fill="black"/>
</svg>
